<svg id="Layer_1" data-name="Layer 1" xmlns="http://www.w3.org/2000/svg" viewBox="0 0 595.28 490.46"><defs><style>.cls-1{fill:#24875b;}.cls-2{fill:#f6c13d;}</style></defs><path class="cls-1" d="M49.21,396.33,58.06,390c3.19,5.58,9.12,8.76,16,8.76,8,0,14.07-3.85,14.07-9.29,0-6.59-9.38-10.58-17.7-14.16s-17.66-8.06-17.66-19.26c0-11.68,10.13-19.83,23-19.83,10.18,0,17.79,4.91,20.71,12.75l-8.32,5.75a13.3,13.3,0,0,0-12.3-7.52c-6.55,0-11.77,4.07-11.77,9.12,0,5.58,6.59,7.57,15.27,11.28,11.28,5,20,10.41,20,21.65,0,12.66-11,20.8-25.45,20.8C62.18,410.05,53.28,404.56,49.21,396.33Z"/><path class="cls-1" d="M107.32,373.27A36.9,36.9,0,1,1,144.15,410,37,37,0,0,1,107.32,373.27Zm62.45-.09a25.58,25.58,0,1,0-25.62,25.5A25.7,25.7,0,0,0,169.77,373.18Z"/><path class="cls-1" d="M260.9,375.48c0,21.2-15.4,34.57-33.95,34.57a36.87,36.87,0,1,1-.4-73.74c9,0,19.26,4.38,26,10.93l-6.24,9.3c-5.58-5.49-13.11-8.94-19.88-8.94a25.73,25.73,0,0,0-25.32,25.67c0,14,11.11,25.49,26.34,25.49,12.26,0,21.47-7.48,21.47-18.36v-.23H226.82V369.9h33.77A52.21,52.21,0,0,1,260.9,375.48Z"/><path class="cls-1" d="M314.09,398H280.32l-4.87,10.85H263.32L296.87,336h.67l33.55,72.82H319Zm-4.34-9.6-12.52-27.89-12.58,27.89Z"/><path class="cls-1" d="M380,337.51H403.9c13.81,0,25.09,10.57,25.09,23.54,0,12.71-11.28,23.06-25.09,23.06H391.24v24.75H380ZM417.8,361c0-6.81-6.25-12.35-13.9-12.35H391.24V373l12.66.05C411.55,373.09,417.8,367.65,417.8,361Z"/><path class="cls-1" d="M476.78,398H443l-4.86,10.85H426L459.56,336h.66l33.55,72.82H481.65Zm-4.34-9.6-12.53-27.89-12.57,27.89Z"/><path class="cls-1" d="M511.28,378.36,487.6,337.51h12.61l16.6,28.41,16.64-28.41h12.62l-23.68,40.85v30.5H511.28Z"/><path class="cls-2" d="M118.6,437.9H112v20.8h-3.88V437.9H101.5v-3.84h17.1Z"/><path class="cls-2" d="M142.9,455H131.24l-1.68,3.74h-4.19L137,433.55h.22l11.59,25.15h-4.19Zm-1.5-3.32L137.08,442l-4.34,9.63Z"/><path class="cls-2" d="M160.29,434.06h8.24a8.43,8.43,0,0,1,8.67,8.13c0,4.39-3.9,8-8.67,8h-4.37v8.54h-3.87Zm13,8.1a4.56,4.56,0,0,0-4.8-4.26h-4.37v8.42l4.37,0C171.17,446.35,173.33,444.47,173.33,442.16Z"/><path class="cls-2" d="M185.13,463.63a3,3,0,0,0,2.83-3.12,2,2,0,0,0-.26-1.18,2.34,2.34,0,0,1-2.32-2.37,2.72,2.72,0,0,1,2.75-2.73c1.54,0,2.86,1.28,2.86,3.91,0,3.35-1.88,6.21-4.44,6.21C185.65,464.35,185.13,463.86,185.13,463.63Z"/><path class="cls-2" d="M220.43,454.38l3-2.19a6.17,6.17,0,0,0,5.52,3c2.77,0,4.86-1.33,4.86-3.21,0-2.28-3.24-3.65-6.11-4.89s-6.1-2.79-6.1-6.65c0-4,3.5-6.85,7.93-6.85,3.52,0,6.15,1.69,7.16,4.4l-2.88,2a4.58,4.58,0,0,0-4.25-2.6c-2.26,0-4.06,1.4-4.06,3.15,0,1.92,2.28,2.61,5.27,3.9,3.9,1.71,6.93,3.59,6.93,7.47,0,4.37-3.79,7.19-8.79,7.19C224.91,459.12,221.83,457.22,220.43,454.38Z"/><path class="cls-2" d="M253.71,437.87v6.31H263V448h-9.33v6.82h10.81v3.85H249.84V434.06h14.68v3.81Z"/><path class="cls-2" d="M297.13,434v25.13H297l-15.77-16.46v16.07h-3.87V433.63h.2l15.74,16.43V434Z"/><path class="cls-2" d="M330.37,446.41c0,7.57-4.88,12.29-12.71,12.29h-7V434.06h7C325.49,434.05,330.37,438.78,330.37,446.41Zm-3.92,0c0-5.23-3.39-8.5-8.8-8.5H314.5v17h3.19C323.07,454.85,326.45,451.6,326.45,446.4Z"/><path class="cls-2" d="M340.37,463.63a3,3,0,0,0,2.83-3.12,1.88,1.88,0,0,0-.27-1.18,2.34,2.34,0,0,1-2.32-2.37,2.72,2.72,0,0,1,2.75-2.73c1.55,0,2.86,1.28,2.86,3.91,0,3.35-1.88,6.21-4.43,6.21C340.89,464.35,340.37,463.86,340.37,463.63Z"/><path class="cls-2" d="M396.8,446.41c0,7.57-4.87,12.29-12.7,12.29h-7V434.06h7C391.93,434.05,396.8,438.78,396.8,446.41Zm-3.91,0c0-5.23-3.39-8.5-8.81-8.5h-3.14v17h3.19C389.51,454.85,392.89,451.6,392.89,446.4Z"/><path class="cls-2" d="M408,446.41a12.75,12.75,0,1,1,12.72,12.69A12.79,12.79,0,0,1,408,446.41Zm21.57,0a8.84,8.84,0,1,0-8.85,8.81A8.88,8.88,0,0,0,429.52,446.38Z"/><path class="cls-2" d="M465.58,434v25.13h-.19l-15.76-16.46v16.07h-3.87V433.63h.2l15.73,16.43V434Z"/><path class="cls-2" d="M483,437.87v6.31h9.33V448H483v6.82h10.81v3.85H479.1V434.06h14.67v3.81Z"/><path class="cls-2" d="M442,233.42c0-1.31,0-4,0-7.57,0-.24,0-.47,0-.71,0-2.07,0-4.47,0-7.1h-14.8v5h0c0,3.2,0,6.33,0,9.47,0,.26,0,.52,0,.79,0,5.56,0,11.08,0,16.56a22,22,0,0,1-5.68,15c-6,6.86-13.59,9.84-22.53,9.87l-93.5.11c-10.61,7.07-23.85,11.93-39.47,14v1.07H398.13a56.58,56.58,0,0,0,8.92-.71c16.43-2.51,35.54-17.33,35-40.54-.11-4.89-.12-9.79-.13-14.69A3,3,0,0,0,442,233.42Z"/><path class="cls-1" d="M249,289.94h2.24v-.06C250.46,289.89,249.73,289.94,249,289.94Z"/><path class="cls-1" d="M441.87,147c0-25.76-.09-48.43-.18-53.32a29.43,29.43,0,0,0-3.83-13.67C429,63.81,415,57.06,396.77,57.14c-7.58.06-83.06.06-145.56.09.71.35,1.42.73,2.11,1.14h.19l3.39,2.14A85.86,85.86,0,0,1,271.31,72c57.08,0,123.9.09,131.66.3,13.56.39,24.06,12.39,24.12,26,0,3.56,0,21.58,0,43.29,3.46,0,6.91.05,10.36,0S441.8,144.19,441.87,147Z"/><path class="cls-1" d="M441.9,176.41c0-5.36,0-10.82,0-16.27q0,8.15,0,16.27Z"/><path class="cls-1" d="M441.93,206c0-.17,0-.33,0-.51,0-9.68,0-19.35,0-29h-.09q0-8.13,0-16.27c0-4.25,0-8.5,0-12.75,0-.12,0-.23,0-.35-.07-2.85-.87-5.37-4.39-5.37s-6.9,0-10.36,0c-14.83-.1-29.66-.29-44.45.42a34.31,34.31,0,0,0-31.42,44.39c4.53,15.34,17.4,24.81,34.82,25.08,13.69.21,27.38.15,41.07.11l8.73,0C440,211.61,441.76,209.92,441.93,206Zm-58.18-10.14a18.88,18.88,0,0,1-18.91-18.91,19.27,19.27,0,0,1,19.08-19.26c10.4-.07,19.6,9.09,19.49,19.4S394.24,196,383.75,195.81Z"/><path class="cls-1" d="M292.52,84.73l1,.66a51.42,51.42,0,0,1,21.64,30H268c-5.51-13-17.37-17.93-27.66-17.93-14.66,0-25.29,11.17-25.29,26.57,0,21.5,22,29.81,45.26,38.61,35.18,13.29,60.08,25,60.08,54.89,0,17.52-6.72,31.94-19.45,42h20.92c8.87-11.65,13.57-26,13.57-42,0-69.79-105.35-65-105.35-93.5,0-7.68,4.49-11.54,10.26-11.54,7.68,0,15,4.19,15.69,17.94h76.53C331.48,104.2,320,84.43,300.61,72h0C290.94,65.91,279.27,61.66,266,59.3V33.61H251.21V57.53c-.08,0,.08,0,0,0V72.57C267.92,73.77,281.66,77.83,292.52,84.73Z"/><path class="cls-2" d="M305.43,274.91H246.05v-.08c-20-.4-37.46-4.78-50.47-12.82A54.87,54.87,0,0,1,171,230h45.87c4.92,12.46,15.23,19.55,29.26,19.55,16.68,0,28.79-11,28.79-26.25-.24-22.52-23.31-30.65-45.62-38.5-35.72-12.58-61-24.12-60.39-58.28,0-18.32,7.43-32.3,22.08-41.79,11.59-7.56,27.11-11.88,44.93-12.51h.77c.34,0-.33,0,0,0v-15h0V33.61h-14V58.33c-15.16,2-28.83,6.61-39.89,13.82-17.8,11.54-28.93,29.69-28.93,54.16-1.28,77.49,105.67,66.3,106,97,0,8-6.73,11.21-13.75,11.21s-16-2.89-17.31-19.55H153.22c1.75,27.81,14.66,47.58,34.45,59.8,10.07,6.23,21.94,10.47,35,12.86v19.93h14.76V289.48c3.78.27,7.61.46,11.54.46.76,0,1.49-.05,2.24-.06v17.71H266V288.87C281.58,286.84,294.82,282,305.43,274.91Z"/><path class="cls-2" d="M400.83,42.23A16.1,16.1,0,0,0,379.66,27L297.07,52.63H400.83Z"/></svg>